M48
; DRILL file {KiCad 9.0.9.1-unknown-202605141413~ce707d0a6c~ubuntu24.04.1} date 2026-09-14T13:40:08+0000
; FORMAT={-:-/ absolute / metric / decimal}
; #@! TF.CreationDate,2026-09-14T13:40:08+00:00
; #@! TF.GenerationSoftware,Kicad,Pcbnew,9.0.9.1-unknown-202605141413~ce707d0a6c~ubuntu24.04.1
; #@! TF.FileFunction,MixedPlating,1,4
FMAT,2
METRIC
; #@! TA.AperFunction,Plated,PTH,ComponentDrill
T1C0.250
; #@! TA.AperFunction,Plated,PTH,ViaDrill
T2C0.300
; #@! TA.AperFunction,Plated,PTH,ComponentDrill
T3C0.600
; #@! TA.AperFunction,Plated,PTH,ComponentDrill
T4C0.750
; #@! TA.AperFunction,Plated,PTH,ComponentDrill
T5C1.000
; #@! TA.AperFunction,NonPlated,NPTH,ComponentDrill
T6C0.650
; #@! TA.AperFunction,NonPlated,NPTH,ComponentDrill
T7C3.200
%
G90
G05
T1
X26.5Y-40.5
X26.5Y-41.5
T2
X1.32Y-22.6
X1.32Y-27.4
X2.503Y-23.906
X3.416Y-25.791
X3.569Y-28.401
X4.287Y-33.858
X4.897Y-26.266
X4.921Y-36.178
X7.212Y-39.764
X10.137Y-7.281
X10.744Y-10.0
X10.744Y-14.983
X10.769Y-36.046
X10.772Y-33.858
X11.927Y-27.039
X12.0Y-31.816
X13.062Y-33.858
X13.501Y-7.617
X15.987Y-48.368
X18.088Y-7.281
X18.508Y-40.969
X21.827Y-21.361
X21.837Y-10.234
X21.889Y-40.505
X23.237Y-37.8
X23.546Y-20.271
X23.919Y-27.102
X24.155Y-36.055
X24.762Y-27.952
X25.095Y-20.499
X25.236Y-18.89
X25.827Y-21.548
X26.775Y-34.481
X27.665Y-24.014
X28.194Y-18.554
X31.424Y-24.865
X31.813Y-20.35
X33.595Y-19.418
X36.374Y-40.723
X38.203Y-22.785
X38.206Y-21.529
X38.207Y-25.069
X38.755Y-26.938
X38.916Y-39.029
X39.45Y-19.561
X39.95Y-26.638
X39.965Y-21.725
X40.047Y-37.017
X41.379Y-40.723
X41.804Y-18.148
X41.813Y-27.511
X41.945Y-22.109
X42.736Y-30.514
X43.303Y-23.204
X46.75Y-33.491
X47.112Y-4.545
X47.448Y-5.513
X47.698Y-25.357
X47.707Y-21.18
X48.252Y-20.003
X48.299Y-16.826
X48.731Y-4.757
X48.775Y-10.478
X49.497Y-31.308
X49.906Y-11.099
X49.982Y-19.674
X50.29Y-15.487
X50.508Y-12.23
X50.962Y-13.188
X51.087Y-27.952
X51.573Y-17.957
X51.596Y-17.0
X51.881Y-14.034
X52.318Y-23.755
X52.768Y-34.774
X52.907Y-5.284
X52.965Y-24.943
X53.25Y-9.321
X53.3Y-48.075
X53.469Y-17.056
X54.181Y-16.018
X54.628Y-23.049
X55.013Y-25.544
X55.775Y-10.481
X56.131Y-17.371
X56.556Y-25.008
X56.938Y-13.188
X56.938Y-19.129
X57.059Y-21.062
X57.079Y-28.418
X59.568Y-10.273
X59.599Y-22.0
X62.787Y-10.207
X62.787Y-18.617
X63.631Y-9.37
T4
X66.9Y-9.75
X66.9Y-11.75
X66.9Y-13.75
X66.9Y-18.95
X66.9Y-20.95
X66.9Y-22.95
X66.9Y-28.15
X66.9Y-30.15
X66.9Y-32.15
X66.9Y-37.35
X66.9Y-39.35
X66.9Y-41.35
T5
X55.0Y-34.8
X55.0Y-37.34
X55.0Y-39.88
X55.0Y-42.42
X55.0Y-44.96
X55.0Y-47.5
T6
X2.395Y-22.11
X2.395Y-27.89
T7
X3.6Y-3.6
X3.6Y-46.4
X63.5Y-3.6
T3
X1.345Y-20.68G85X2.445Y-20.68
G05
X1.345Y-29.32G85X2.445Y-29.32
G05
X5.675Y-20.68G85X6.475Y-20.68
G05
X5.675Y-29.32G85X6.475Y-29.32
G05
M30
