%TF.GenerationSoftware,KiCad,Pcbnew,9.0.9.1-unknown-202605141413~ce707d0a6c~ubuntu24.04.1*%
%TF.CreationDate,2026-09-14T13:40:07+00:00*%
%TF.ProjectId,pot-pulse,706f742d-7075-46c7-9365-2e6b69636164,rev?*%
%TF.SameCoordinates,Original*%
%TF.FileFunction,Copper,L1,Top*%
%TF.FilePolarity,Positive*%
%FSLAX46Y46*%
G04 Gerber Fmt 4.6, Leading zero omitted, Abs format (unit mm)*
G04 Created by KiCad (PCBNEW 9.0.9.1-unknown-202605141413~ce707d0a6c~ubuntu24.04.1) date 2026-09-14 13:40:07*
%MOMM*%
%LPD*%
G01*
G04 APERTURE LIST*
G04 Aperture macros list*
%AMRoundRect*
0 Rectangle with rounded corners*
0 $1 Rounding radius*
0 $2 $3 $4 $5 $6 $7 $8 $9 X,Y pos of 4 corners*
0 Add a 4 corners polygon primitive as box body*
4,1,4,$2,$3,$4,$5,$6,$7,$8,$9,$2,$3,0*
0 Add four circle primitives for the rounded corners*
1,1,$1+$1,$2,$3*
1,1,$1+$1,$4,$5*
1,1,$1+$1,$6,$7*
1,1,$1+$1,$8,$9*
0 Add four rect primitives between the rounded corners*
20,1,$1+$1,$2,$3,$4,$5,0*
20,1,$1+$1,$4,$5,$6,$7,0*
20,1,$1+$1,$6,$7,$8,$9,0*
20,1,$1+$1,$8,$9,$2,$3,0*%
%AMFreePoly0*
4,1,6,0.725000,-0.725000,-0.725000,-0.725000,-0.725000,0.125000,-0.125000,0.725000,0.725000,0.725000,0.725000,-0.725000,0.725000,-0.725000,$1*%
G04 Aperture macros list end*
%TA.AperFunction,ComponentPad*%
%ADD10RoundRect,0.250000X-0.625000X0.350000X-0.625000X-0.350000X0.625000X-0.350000X0.625000X0.350000X0*%
%TD*%
%TA.AperFunction,ComponentPad*%
%ADD11O,1.750000X1.200000*%
%TD*%
%TA.AperFunction,SMDPad,CuDef*%
%ADD12R,0.800000X0.400000*%
%TD*%
%TA.AperFunction,SMDPad,CuDef*%
%ADD13R,0.400000X0.800000*%
%TD*%
%TA.AperFunction,SMDPad,CuDef*%
%ADD14FreePoly0,180.000000*%
%TD*%
%TA.AperFunction,SMDPad,CuDef*%
%ADD15R,1.450000X1.450000*%
%TD*%
%TA.AperFunction,SMDPad,CuDef*%
%ADD16R,0.700000X0.700000*%
%TD*%
%TA.AperFunction,SMDPad,CuDef*%
%ADD17RoundRect,0.150000X0.150000X-0.512500X0.150000X0.512500X-0.150000X0.512500X-0.150000X-0.512500X0*%
%TD*%
%TA.AperFunction,SMDPad,CuDef*%
%ADD18RoundRect,0.075000X-0.650000X-0.075000X0.650000X-0.075000X0.650000X0.075000X-0.650000X0.075000X0*%
%TD*%
%TA.AperFunction,SMDPad,CuDef*%
%ADD19RoundRect,0.225000X-0.225000X-0.250000X0.225000X-0.250000X0.225000X0.250000X-0.225000X0.250000X0*%
%TD*%
%TA.AperFunction,ComponentPad*%
%ADD20R,1.700000X1.700000*%
%TD*%
%TA.AperFunction,ComponentPad*%
%ADD21O,1.700000X1.700000*%
%TD*%
%TA.AperFunction,SMDPad,CuDef*%
%ADD22RoundRect,0.250000X-0.325000X-0.650000X0.325000X-0.650000X0.325000X0.650000X-0.325000X0.650000X0*%
%TD*%
%TA.AperFunction,SMDPad,CuDef*%
%ADD23R,0.700000X1.600000*%
%TD*%
%TA.AperFunction,SMDPad,CuDef*%
%ADD24RoundRect,0.200000X-0.200000X-0.275000X0.200000X-0.275000X0.200000X0.275000X-0.200000X0.275000X0*%
%TD*%
%TA.AperFunction,SMDPad,CuDef*%
%ADD25RoundRect,0.150000X0.150000X0.200000X-0.150000X0.200000X-0.150000X-0.200000X0.150000X-0.200000X0*%
%TD*%
%TA.AperFunction,SMDPad,CuDef*%
%ADD26C,1.500000*%
%TD*%
%TA.AperFunction,SMDPad,CuDef*%
%ADD27RoundRect,0.250000X-0.312500X-1.450000X0.312500X-1.450000X0.312500X1.450000X-0.312500X1.450000X0*%
%TD*%
%TA.AperFunction,SMDPad,CuDef*%
%ADD28RoundRect,0.075000X-0.200000X0.075000X-0.200000X-0.075000X0.200000X-0.075000X0.200000X0.075000X0*%
%TD*%
%TA.AperFunction,SMDPad,CuDef*%
%ADD29RoundRect,0.150000X0.425000X-0.150000X0.425000X0.150000X-0.425000X0.150000X-0.425000X-0.150000X0*%
%TD*%
%TA.AperFunction,SMDPad,CuDef*%
%ADD30RoundRect,0.075000X0.500000X-0.075000X0.500000X0.075000X-0.500000X0.075000X-0.500000X-0.075000X0*%
%TD*%
%TA.AperFunction,ComponentPad*%
%ADD31O,2.100000X1.000000*%
%TD*%
%TA.AperFunction,ComponentPad*%
%ADD32O,1.800000X1.000000*%
%TD*%
%TA.AperFunction,SMDPad,CuDef*%
%ADD33R,0.500000X0.300000*%
%TD*%
%TA.AperFunction,SMDPad,CuDef*%
%ADD34RoundRect,0.062500X-0.187500X-0.062500X0.187500X-0.062500X0.187500X0.062500X-0.187500X0.062500X0*%
%TD*%
%TA.AperFunction,ComponentPad*%
%ADD35C,0.600000*%
%TD*%
%TA.AperFunction,SMDPad,CuDef*%
%ADD36R,0.900000X1.600000*%
%TD*%
%TA.AperFunction,SMDPad,CuDef*%
%ADD37RoundRect,0.250000X-0.375000X-0.850000X0.375000X-0.850000X0.375000X0.850000X-0.375000X0.850000X0*%
%TD*%
%TA.AperFunction,ViaPad*%
%ADD38C,0.600000*%
%TD*%
%TA.AperFunction,Conductor*%
%ADD39C,0.200000*%
%TD*%
G04 APERTURE END LIST*
D10*
%TO.P,J2,1*%
%TO.N,/+3V3*%
X66900000Y-37350000D03*
D11*
%TO.P,J2,2*%
%TO.N,/GND*%
X66900000Y-39350000D03*
%TO.P,J2,3*%
%TO.N,/PROBE1_RAW*%
X66900000Y-41350000D03*
%TD*%
D12*
%TO.P,U2,1*%
%TO.N,/GND*%
X40900000Y-27300000D03*
%TO.P,U2,2*%
X40900000Y-26500000D03*
%TO.P,U2,3*%
%TO.N,/+3V3*%
X40900000Y-25700000D03*
%TO.P,U2,4*%
%TO.N,N/C*%
X40900000Y-24900000D03*
%TO.P,U2,5*%
X40900000Y-24100000D03*
%TO.P,U2,6*%
X40900000Y-23300000D03*
%TO.P,U2,7*%
X40900000Y-22500000D03*
%TO.P,U2,8*%
%TO.N,/EN*%
X40900000Y-21700000D03*
%TO.P,U2,9*%
%TO.N,N/C*%
X40900000Y-20900000D03*
%TO.P,U2,10*%
X40900000Y-20100000D03*
%TO.P,U2,11*%
%TO.N,/GND*%
X40900000Y-19300000D03*
D13*
%TO.P,U2,12*%
%TO.N,N/C*%
X39800000Y-18400000D03*
%TO.P,U2,13*%
X39000000Y-18400000D03*
%TO.P,U2,14*%
%TO.N,/GND*%
X38200000Y-18400000D03*
%TO.P,U2,15*%
%TO.N,N/C*%
X37400000Y-18400000D03*
%TO.P,U2,16*%
X36600000Y-18400000D03*
%TO.P,U2,17*%
X35800000Y-18400000D03*
%TO.P,U2,18*%
%TO.N,/I2C_SDA*%
X35000000Y-18400000D03*
%TO.P,U2,19*%
%TO.N,/I2C_SCL*%
X34200000Y-18400000D03*
%TO.P,U2,20*%
%TO.N,/ADC_ALERT_N*%
X33400000Y-18400000D03*
%TO.P,U2,21*%
%TO.N,N/C*%
X32600000Y-18400000D03*
%TO.P,U2,22*%
X31800000Y-18400000D03*
%TO.P,U2,23*%
%TO.N,/BOOT_GPIO9*%
X31000000Y-18400000D03*
%TO.P,U2,24*%
%TO.N,N/C*%
X30200000Y-18400000D03*
D12*
%TO.P,U2,25*%
X29100000Y-19300000D03*
%TO.P,U2,26*%
%TO.N,/USB_DM*%
X29100000Y-20100000D03*
%TO.P,U2,27*%
%TO.N,/USB_DP*%
X29100000Y-20900000D03*
%TO.P,U2,28*%
%TO.N,N/C*%
X29100000Y-21700000D03*
%TO.P,U2,29*%
X29100000Y-22500000D03*
%TO.P,U2,30*%
%TO.N,/U0RXD*%
X29100000Y-23300000D03*
%TO.P,U2,31*%
%TO.N,/U0TXD*%
X29100000Y-24100000D03*
%TO.P,U2,32*%
%TO.N,N/C*%
X29100000Y-24900000D03*
%TO.P,U2,33*%
X29100000Y-25700000D03*
%TO.P,U2,34*%
X29100000Y-26500000D03*
%TO.P,U2,35*%
X29100000Y-27300000D03*
D13*
%TO.P,U2,36*%
%TO.N,/GND*%
X30200000Y-28200000D03*
%TO.P,U2,37*%
X31000000Y-28200000D03*
%TO.P,U2,38*%
X31800000Y-28200000D03*
%TO.P,U2,39*%
X32600000Y-28200000D03*
%TO.P,U2,40*%
X33400000Y-28200000D03*
%TO.P,U2,41*%
X34200000Y-28200000D03*
%TO.P,U2,42*%
X35000000Y-28200000D03*
%TO.P,U2,43*%
X35800000Y-28200000D03*
%TO.P,U2,44*%
X36600000Y-28200000D03*
%TO.P,U2,45*%
X37400000Y-28200000D03*
%TO.P,U2,46*%
X38200000Y-28200000D03*
%TO.P,U2,47*%
X39000000Y-28200000D03*
%TO.P,U2,48*%
X39800000Y-28200000D03*
D14*
%TO.P,U2,49*%
X36975000Y-25275000D03*
D15*
X36975000Y-23300000D03*
X36975000Y-21325000D03*
X35000000Y-25275000D03*
X35000000Y-23300000D03*
X35000000Y-21325000D03*
X33025000Y-25275000D03*
X33025000Y-23300000D03*
X33025000Y-21325000D03*
D16*
%TO.P,U2,50*%
X29050000Y-28250000D03*
%TO.P,U2,51*%
X29050000Y-18350000D03*
%TO.P,U2,52*%
X40950000Y-18350000D03*
%TO.P,U2,53*%
X40950000Y-28250000D03*
%TD*%
D17*
%TO.P,U7,1*%
%TO.N,/USB_CONN_DM*%
X11050000Y-30637500D03*
%TO.P,U7,2*%
%TO.N,/GND*%
X12000000Y-30637500D03*
%TO.P,U7,3*%
%TO.N,/USB_CONN_DP*%
X12950000Y-30637500D03*
%TO.P,U7,4*%
%TO.N,/USB_DP*%
X12950000Y-28362500D03*
%TO.P,U7,5*%
%TO.N,/+5V_PROTECTED*%
X12000000Y-28362500D03*
%TO.P,U7,6*%
%TO.N,/USB_DM*%
X11050000Y-28362500D03*
%TD*%
D18*
%TO.P,U4,1*%
%TO.N,/GND*%
X50300000Y-17000000D03*
%TO.P,U4,2*%
%TO.N,/ADC_ALERT_N*%
X50300000Y-17500000D03*
%TO.P,U4,3*%
%TO.N,/GND*%
X50300000Y-18000000D03*
%TO.P,U4,4*%
%TO.N,/MOISTURE_AIN0*%
X50300000Y-18500000D03*
%TO.P,U4,5*%
%TO.N,/MOISTURE_AIN1*%
X50300000Y-19000000D03*
%TO.P,U4,6*%
%TO.N,/MOISTURE_AIN2*%
X54700000Y-19000000D03*
%TO.P,U4,7*%
%TO.N,/MOISTURE_AIN3*%
X54700000Y-18500000D03*
%TO.P,U4,8*%
%TO.N,/+3V3*%
X54700000Y-18000000D03*
%TO.P,U4,9*%
%TO.N,/I2C_SDA*%
X54700000Y-17500000D03*
%TO.P,U4,10*%
%TO.N,/I2C_SCL*%
X54700000Y-17000000D03*
%TD*%
D19*
%TO.P,C8,1*%
%TO.N,/+3V3*%
X21225000Y-19500000D03*
%TO.P,C8,2*%
%TO.N,/GND*%
X22775000Y-19500000D03*
%TD*%
D20*
%TO.P,J6,1*%
%TO.N,/+3V3*%
X55000000Y-47500000D03*
D21*
%TO.P,J6,2*%
%TO.N,/GND*%
X55000000Y-44960000D03*
%TO.P,J6,3*%
%TO.N,/EN*%
X55000000Y-42420000D03*
%TO.P,J6,4*%
%TO.N,/BOOT_GPIO9*%
X55000000Y-39880000D03*
%TO.P,J6,5*%
%TO.N,/U0RXD*%
X55000000Y-37340000D03*
%TO.P,J6,6*%
%TO.N,/U0TXD*%
X55000000Y-34800000D03*
%TD*%
D19*
%TO.P,C2,1*%
%TO.N,/+5V_PROTECTED*%
X20725000Y-37800000D03*
%TO.P,C2,2*%
%TO.N,/GND*%
X22275000Y-37800000D03*
%TD*%
D22*
%TO.P,C4,1*%
%TO.N,/+3V3*%
X39525000Y-41000000D03*
%TO.P,C4,2*%
%TO.N,/GND*%
X42475000Y-41000000D03*
%TD*%
D23*
%TO.P,U6,1*%
%TO.N,/I2C_SCL*%
X54539000Y-27095000D03*
%TO.P,U6,2*%
%TO.N,/+3V3*%
X55809000Y-27095000D03*
%TO.P,U6,3*%
%TO.N,/GND*%
X57079000Y-27095000D03*
%TO.P,U6,4*%
%TO.N,/I2C_SDA*%
X58349000Y-27095000D03*
%TD*%
D10*
%TO.P,J5,1*%
%TO.N,/+3V3*%
X66900000Y-9750000D03*
D11*
%TO.P,J5,2*%
%TO.N,/GND*%
X66900000Y-11750000D03*
%TO.P,J5,3*%
%TO.N,/PROBE4_RAW*%
X66900000Y-13750000D03*
%TD*%
D24*
%TO.P,R9,1*%
%TO.N,/PROBE1_RAW*%
X47175000Y-6500000D03*
%TO.P,R9,2*%
%TO.N,/MOISTURE_AIN0*%
X48825000Y-6500000D03*
%TD*%
D25*
%TO.P,D1,1*%
%TO.N,/+5V_PROTECTED*%
X16300000Y-41000000D03*
%TO.P,D1,2*%
%TO.N,/GND*%
X17700000Y-41000000D03*
%TD*%
D26*
%TO.P,TP7,1*%
%TO.N,/USB_DP*%
X20000000Y-6000000D03*
%TD*%
%TO.P,TP13,1*%
%TO.N,/MOISTURE_AIN0*%
X56000000Y-3500000D03*
%TD*%
%TO.P,TP4,1*%
%TO.N,/GND*%
X12000000Y-10000000D03*
%TD*%
D24*
%TO.P,R10,1*%
%TO.N,/PROBE2_RAW*%
X50675000Y-6500000D03*
%TO.P,R10,2*%
%TO.N,/MOISTURE_AIN1*%
X52325000Y-6500000D03*
%TD*%
D19*
%TO.P,C9,1*%
%TO.N,/+3V3*%
X45725000Y-19500000D03*
%TO.P,C9,2*%
%TO.N,/GND*%
X47275000Y-19500000D03*
%TD*%
D24*
%TO.P,R2,1*%
%TO.N,/CC2*%
X7675000Y-33000000D03*
%TO.P,R2,2*%
%TO.N,/GND*%
X9325000Y-33000000D03*
%TD*%
D27*
%TO.P,F1,1*%
%TO.N,/VBUS*%
X10362500Y-41000000D03*
%TO.P,F1,2*%
%TO.N,/+5V_PROTECTED*%
X14637500Y-41000000D03*
%TD*%
D24*
%TO.P,R11,1*%
%TO.N,/PROBE3_RAW*%
X54175000Y-6500000D03*
%TO.P,R11,2*%
%TO.N,/MOISTURE_AIN2*%
X55825000Y-6500000D03*
%TD*%
%TO.P,R6,1*%
%TO.N,/+3V3*%
X25175000Y-36200000D03*
%TO.P,R6,2*%
%TO.N,/EN*%
X26825000Y-36200000D03*
%TD*%
D19*
%TO.P,C10,1*%
%TO.N,/MOISTURE_AIN0*%
X47225000Y-9500000D03*
%TO.P,C10,2*%
%TO.N,/GND*%
X48775000Y-9500000D03*
%TD*%
D26*
%TO.P,TP6,1*%
%TO.N,/I2C_SCL*%
X16000000Y-10000000D03*
%TD*%
D10*
%TO.P,J4,1*%
%TO.N,/+3V3*%
X66900000Y-18950000D03*
D11*
%TO.P,J4,2*%
%TO.N,/GND*%
X66900000Y-20950000D03*
%TO.P,J4,3*%
%TO.N,/PROBE3_RAW*%
X66900000Y-22950000D03*
%TD*%
D28*
%TO.P,U3,1*%
%TO.N,/PROBE1_RAW*%
X58015000Y-21000000D03*
%TO.P,U3,2*%
%TO.N,/PROBE2_RAW*%
X58015000Y-21500000D03*
%TO.P,U3,3*%
%TO.N,/GND*%
X58015000Y-22000000D03*
%TO.P,U3,4*%
%TO.N,/PROBE3_RAW*%
X58015000Y-22500000D03*
%TO.P,U3,5*%
%TO.N,/PROBE4_RAW*%
X58015000Y-23000000D03*
%TO.P,U3,6*%
%TO.N,N/C*%
X58785000Y-23000000D03*
%TO.P,U3,7*%
X58785000Y-22500000D03*
%TO.P,U3,8*%
%TO.N,/GND*%
X58785000Y-22000000D03*
%TO.P,U3,9*%
%TO.N,N/C*%
X58785000Y-21500000D03*
%TO.P,U3,10*%
X58785000Y-21000000D03*
%TD*%
D10*
%TO.P,J3,1*%
%TO.N,/+3V3*%
X66900000Y-28150000D03*
D11*
%TO.P,J3,2*%
%TO.N,/GND*%
X66900000Y-30150000D03*
%TO.P,J3,3*%
%TO.N,/PROBE2_RAW*%
X66900000Y-32150000D03*
%TD*%
D26*
%TO.P,TP16,1*%
%TO.N,/MOISTURE_AIN3*%
X12000000Y-14500000D03*
%TD*%
D19*
%TO.P,C11,1*%
%TO.N,/MOISTURE_AIN1*%
X50725000Y-9500000D03*
%TO.P,C11,2*%
%TO.N,/GND*%
X52275000Y-9500000D03*
%TD*%
D24*
%TO.P,R8,1*%
%TO.N,/+3V3*%
X54525000Y-22000000D03*
%TO.P,R8,2*%
%TO.N,/ADC_ALERT_N*%
X56175000Y-22000000D03*
%TD*%
D26*
%TO.P,TP1,1*%
%TO.N,/VBUS*%
X8450000Y-6000000D03*
%TD*%
D24*
%TO.P,R12,1*%
%TO.N,/PROBE4_RAW*%
X57195000Y-6500000D03*
%TO.P,R12,2*%
%TO.N,/MOISTURE_AIN3*%
X58845000Y-6500000D03*
%TD*%
D26*
%TO.P,TP14,1*%
%TO.N,/MOISTURE_AIN1*%
X58600000Y-3500000D03*
%TD*%
D19*
%TO.P,C13,1*%
%TO.N,/MOISTURE_AIN3*%
X57245000Y-9500000D03*
%TO.P,C13,2*%
%TO.N,/GND*%
X58795000Y-9500000D03*
%TD*%
D24*
%TO.P,R7,1*%
%TO.N,/+3V3*%
X44175000Y-36200000D03*
%TO.P,R7,2*%
%TO.N,/BOOT_GPIO9*%
X45825000Y-36200000D03*
%TD*%
D19*
%TO.P,C6,1*%
%TO.N,/EN*%
X25225000Y-33500000D03*
%TO.P,C6,2*%
%TO.N,/GND*%
X26775000Y-33500000D03*
%TD*%
D29*
%TO.P,J1,A1*%
%TO.N,/GND*%
X1320000Y-28200000D03*
%TO.P,J1,A4*%
%TO.N,/VBUS*%
X1320000Y-27400000D03*
D30*
%TO.P,J1,A5*%
%TO.N,/CC1*%
X1320000Y-26250000D03*
%TO.P,J1,A6*%
%TO.N,/USB_CONN_DP*%
X1320000Y-25250000D03*
%TO.P,J1,A7*%
%TO.N,/USB_CONN_DM*%
X1320000Y-24750000D03*
%TO.P,J1,A8*%
%TO.N,N/C*%
X1320000Y-23750000D03*
D29*
%TO.P,J1,A9*%
%TO.N,/VBUS*%
X1320000Y-22600000D03*
%TO.P,J1,A12*%
%TO.N,/GND*%
X1320000Y-21800000D03*
%TO.P,J1,B1*%
X1320000Y-21800000D03*
%TO.P,J1,B4*%
%TO.N,/VBUS*%
X1320000Y-22600000D03*
D30*
%TO.P,J1,B5*%
%TO.N,/CC2*%
X1320000Y-23250000D03*
%TO.P,J1,B6*%
%TO.N,/USB_CONN_DP*%
X1320000Y-24250000D03*
%TO.P,J1,B7*%
%TO.N,/USB_CONN_DM*%
X1320000Y-25750000D03*
%TO.P,J1,B8*%
%TO.N,N/C*%
X1320000Y-26750000D03*
D29*
%TO.P,J1,B9*%
%TO.N,/VBUS*%
X1320000Y-27400000D03*
%TO.P,J1,B12*%
%TO.N,/GND*%
X1320000Y-28200000D03*
D31*
%TO.P,J1,S1*%
X1895000Y-29320000D03*
D32*
X6075000Y-29320000D03*
D31*
X1895000Y-20680000D03*
D32*
X6075000Y-20680000D03*
%TD*%
D26*
%TO.P,TP2,1*%
%TO.N,/+5V_PROTECTED*%
X12000000Y-6000000D03*
%TD*%
D19*
%TO.P,C12,1*%
%TO.N,/MOISTURE_AIN2*%
X54225000Y-9500000D03*
%TO.P,C12,2*%
%TO.N,/GND*%
X55775000Y-9500000D03*
%TD*%
D24*
%TO.P,R5,1*%
%TO.N,/+3V3*%
X51495000Y-22000000D03*
%TO.P,R5,2*%
%TO.N,/I2C_SCL*%
X53145000Y-22000000D03*
%TD*%
D26*
%TO.P,TP3,1*%
%TO.N,/+3V3*%
X8000000Y-10000000D03*
%TD*%
D19*
%TO.P,C5,1*%
%TO.N,/+3V3*%
X39225000Y-37800000D03*
%TO.P,C5,2*%
%TO.N,/GND*%
X40775000Y-37800000D03*
%TD*%
D22*
%TO.P,C3,1*%
%TO.N,/+3V3*%
X34525000Y-41000000D03*
%TO.P,C3,2*%
%TO.N,/GND*%
X37475000Y-41000000D03*
%TD*%
D26*
%TO.P,TP11,1*%
%TO.N,/BOOT_GPIO9*%
X48000000Y-3500000D03*
%TD*%
D33*
%TO.P,U5,1*%
%TO.N,/I2C_SDA*%
X53500000Y-29600000D03*
%TO.P,U5,2*%
%TO.N,/I2C_SCL*%
X53500000Y-30400000D03*
%TO.P,U5,3*%
%TO.N,/+3V3*%
X54900000Y-30400000D03*
%TO.P,U5,4*%
%TO.N,/GND*%
X54900000Y-29600000D03*
%TD*%
D26*
%TO.P,TP9,1*%
%TO.N,/REG_PG*%
X49000000Y-12500000D03*
%TD*%
D19*
%TO.P,C7,1*%
%TO.N,/+3V3*%
X44225000Y-33500000D03*
%TO.P,C7,2*%
%TO.N,/GND*%
X45775000Y-33500000D03*
%TD*%
D26*
%TO.P,TP8,1*%
%TO.N,/USB_DM*%
X20000000Y-10000000D03*
%TD*%
%TO.P,TP10,1*%
%TO.N,/EN*%
X52500000Y-12500000D03*
%TD*%
D34*
%TO.P,U1,1*%
%TO.N,/GND*%
X25550000Y-40250000D03*
%TO.P,U1,2*%
%TO.N,/+5V_PROTECTED*%
X25550000Y-40750000D03*
%TO.P,U1,3*%
X25550000Y-41250000D03*
%TO.P,U1,4*%
%TO.N,/GND*%
X25550000Y-41750000D03*
%TO.P,U1,5*%
X27450000Y-41750000D03*
%TO.P,U1,6*%
%TO.N,/+3V3*%
X27450000Y-41250000D03*
%TO.P,U1,7*%
%TO.N,/SW_NODE*%
X27450000Y-40750000D03*
%TO.P,U1,8*%
%TO.N,/REG_PG*%
X27450000Y-40250000D03*
D35*
%TO.P,U1,9*%
%TO.N,/GND*%
X26500000Y-40500000D03*
D36*
X26500000Y-41000000D03*
D35*
X26500000Y-41500000D03*
%TD*%
D22*
%TO.P,C1,1*%
%TO.N,/+5V_PROTECTED*%
X20025000Y-41000000D03*
%TO.P,C1,2*%
%TO.N,/GND*%
X22975000Y-41000000D03*
%TD*%
D24*
%TO.P,R1,1*%
%TO.N,/CC1*%
X7675000Y-36000000D03*
%TO.P,R1,2*%
%TO.N,/GND*%
X9325000Y-36000000D03*
%TD*%
%TO.P,R3,1*%
%TO.N,/+3V3*%
X29175000Y-37000000D03*
%TO.P,R3,2*%
%TO.N,/REG_PG*%
X30825000Y-37000000D03*
%TD*%
%TO.P,R4,1*%
%TO.N,/+3V3*%
X48475000Y-22000000D03*
%TO.P,R4,2*%
%TO.N,/I2C_SDA*%
X50125000Y-22000000D03*
%TD*%
D26*
%TO.P,TP12,1*%
%TO.N,/ADC_ALERT_N*%
X51500000Y-3500000D03*
%TD*%
D37*
%TO.P,L1,1*%
%TO.N,/SW_NODE*%
X30225000Y-40900000D03*
%TO.P,L1,2*%
%TO.N,/+3V3*%
X32375000Y-40900000D03*
%TD*%
D26*
%TO.P,TP15,1*%
%TO.N,/MOISTURE_AIN2*%
X8000000Y-14500000D03*
%TD*%
%TO.P,TP5,1*%
%TO.N,/I2C_SDA*%
X16000000Y-6000000D03*
%TD*%
D38*
%TO.N,/+3V3*%
X21827200Y-21361400D03*
X24155500Y-36055400D03*
%TO.N,/+5V_PROTECTED*%
X13062500Y-33858500D03*
X11926900Y-27039300D03*
X13500800Y-7617300D03*
%TO.N,/ADC_ALERT_N*%
X54180700Y-16018000D03*
X48299400Y-16826500D03*
X33594600Y-19417600D03*
X54627700Y-23049400D03*
X47447800Y-5512900D03*
%TO.N,/BOOT_GPIO9*%
X48730700Y-4757200D03*
X31424000Y-24865000D03*
%TO.N,/CC1*%
X4897300Y-26265900D03*
X4921300Y-36177700D03*
%TO.N,/CC2*%
X2503300Y-23906100D03*
X4287500Y-33858500D03*
%TO.N,/EN*%
X52768400Y-34774500D03*
X51881300Y-14033600D03*
%TO.N,/GND*%
X39950000Y-26638000D03*
X46750300Y-33491000D03*
X48252500Y-20003000D03*
X59567700Y-10272700D03*
X53250000Y-9321400D03*
X10769100Y-36045800D03*
X10743800Y-10000000D03*
X21889200Y-40505200D03*
X48775000Y-10478100D03*
X28194100Y-18554200D03*
X41379100Y-40722900D03*
X40047300Y-37016600D03*
X55775000Y-10481400D03*
X38205800Y-21529100D03*
X23546400Y-20271400D03*
X38203100Y-22785500D03*
X41803800Y-18147900D03*
X18507500Y-40968600D03*
X26775000Y-34481400D03*
X39450000Y-19561100D03*
X57079000Y-28418000D03*
X12000000Y-31815600D03*
X59599000Y-22000000D03*
X51596500Y-17000000D03*
X41812900Y-27511200D03*
X23236800Y-37800000D03*
X38207500Y-25069200D03*
X51573200Y-17956900D03*
X10772500Y-33858500D03*
X36374300Y-40722900D03*
%TO.N,/I2C_SCL*%
X25094900Y-20498700D03*
X31813100Y-20349900D03*
X51087500Y-27952500D03*
X43302800Y-23203900D03*
X52317800Y-23755200D03*
X53468600Y-17055700D03*
%TO.N,/I2C_SDA*%
X56131400Y-17371000D03*
X41945500Y-22109200D03*
X56555700Y-25007700D03*
X39965400Y-21724600D03*
X18088200Y-7281500D03*
X52965500Y-24942700D03*
%TO.N,/MOISTURE_AIN0*%
X50290300Y-15487500D03*
X49906000Y-11099000D03*
%TO.N,/MOISTURE_AIN1*%
X49982100Y-19674400D03*
X50962500Y-13187500D03*
%TO.N,/MOISTURE_AIN2*%
X56937500Y-19129300D03*
X15987500Y-48368500D03*
X56937500Y-13187500D03*
X10743800Y-14983000D03*
X53300000Y-48075000D03*
%TO.N,/MOISTURE_AIN3*%
X27665300Y-24014000D03*
X62787500Y-18616800D03*
X47707400Y-21180500D03*
X62787500Y-10206500D03*
%TO.N,/PROBE1_RAW*%
X57059100Y-21062000D03*
X47111800Y-4544700D03*
%TO.N,/PROBE2_RAW*%
X52906700Y-5284300D03*
%TO.N,/PROBE3_RAW*%
X63630900Y-9370100D03*
%TO.N,/REG_PG*%
X38915700Y-39029200D03*
X47697600Y-25357500D03*
X55013100Y-25544400D03*
X50507700Y-12230500D03*
%TO.N,/U0RXD*%
X49496900Y-31308000D03*
X42735900Y-30514500D03*
X38754700Y-26938000D03*
%TO.N,/USB_CONN_DM*%
X3415600Y-25790700D03*
X3569400Y-28400600D03*
%TO.N,/USB_DM*%
X21837500Y-10234500D03*
X23919200Y-27102100D03*
X25236300Y-18890400D03*
%TO.N,/USB_DP*%
X25826600Y-21548100D03*
X24762500Y-27952500D03*
%TO.N,/VBUS*%
X1320000Y-27400000D03*
X1320000Y-22600000D03*
X10137500Y-7281500D03*
X7212500Y-39764500D03*
%TD*%
D39*
%TO.N,/+3V3*%
X21225000Y-20759200D02*
X21827200Y-21361400D01*
X27450000Y-41250000D02*
X27778900Y-41250000D01*
X29984500Y-36190500D02*
X29175000Y-37000000D01*
X66900000Y-37350000D02*
X65537500Y-35987500D01*
X54525000Y-22000000D02*
X53703600Y-21178600D01*
X39225000Y-38303400D02*
X39225000Y-37800000D01*
X35727700Y-39797300D02*
X39525000Y-39797300D01*
X54700000Y-18000000D02*
X65950000Y-18000000D01*
X39525000Y-39797300D02*
X39525000Y-41000000D01*
X45725000Y-20058300D02*
X47666700Y-22000000D01*
X52826100Y-35410300D02*
X53403300Y-35987500D01*
X44175000Y-36200000D02*
X44964700Y-35410300D01*
X57770700Y-19501700D02*
X57541300Y-19731100D01*
X46235900Y-29291700D02*
X52941100Y-29291700D01*
X53403300Y-35987500D02*
X56181100Y-35987500D01*
X53703600Y-21178600D02*
X51495000Y-21178600D01*
X55000000Y-47500000D02*
X53848300Y-47500000D01*
X25975000Y-37000000D02*
X25175000Y-36200000D01*
X34425000Y-40900000D02*
X34525000Y-41000000D01*
X21225000Y-19500000D02*
X21225000Y-20759200D01*
X51495000Y-22000000D02*
X51495000Y-21178600D01*
X56181100Y-35987500D02*
X56181100Y-34312000D01*
X45725000Y-19500000D02*
X45725000Y-20058300D01*
X66900000Y-18950000D02*
X66348300Y-19501700D01*
X27778900Y-41250000D02*
X28834800Y-42305900D01*
X56793900Y-19731100D02*
X54525000Y-22000000D01*
X54271000Y-32401900D02*
X52941100Y-32401900D01*
X53848300Y-47500000D02*
X53821600Y-47473300D01*
X52941100Y-32401900D02*
X52941100Y-29291700D01*
X57541300Y-19731100D02*
X56793900Y-19731100D01*
X65950000Y-18000000D02*
X66900000Y-18950000D01*
X44964700Y-35410300D02*
X52826100Y-35410300D01*
X34525000Y-41000000D02*
X35727700Y-39797300D01*
X48475000Y-22000000D02*
X49296400Y-21178600D01*
X55090900Y-28914800D02*
X55809000Y-28196700D01*
X55809000Y-27095000D02*
X55809000Y-28196700D01*
X65537500Y-35987500D02*
X56181100Y-35987500D01*
X52941100Y-32401900D02*
X45323100Y-32401900D01*
X52941100Y-29291700D02*
X53318000Y-28914800D01*
X10250000Y-12250000D02*
X13975000Y-12250000D01*
X45323100Y-32401900D02*
X44225000Y-33500000D01*
X42644200Y-25700000D02*
X46235900Y-29291700D01*
X49296400Y-21178600D02*
X51495000Y-21178600D01*
X45998300Y-47473300D02*
X39525000Y-41000000D01*
X41771600Y-38603400D02*
X39525000Y-38603400D01*
X37615500Y-36190500D02*
X29984500Y-36190500D01*
X40900000Y-25700000D02*
X42644200Y-25700000D01*
X25030400Y-36055400D02*
X25175000Y-36200000D01*
X13975000Y-12250000D02*
X21225000Y-19500000D01*
X53318000Y-28914800D02*
X55090900Y-28914800D01*
X32375000Y-40900000D02*
X34425000Y-40900000D01*
X53821600Y-47473300D02*
X45998300Y-47473300D01*
X66348300Y-19501700D02*
X57770700Y-19501700D01*
X30969100Y-42305900D02*
X32375000Y-40900000D01*
X29175000Y-37000000D02*
X25975000Y-37000000D01*
X8000000Y-10000000D02*
X10250000Y-12250000D01*
X39525000Y-38603400D02*
X39225000Y-38303400D01*
X39225000Y-37800000D02*
X37615500Y-36190500D01*
X47666700Y-22000000D02*
X48475000Y-22000000D01*
X56181100Y-34312000D02*
X54271000Y-32401900D01*
X44175000Y-36200000D02*
X41771600Y-38603400D01*
X28834800Y-42305900D02*
X30969100Y-42305900D01*
X39525000Y-38603400D02*
X39525000Y-39797300D01*
X24155500Y-36055400D02*
X25030400Y-36055400D01*
%TO.N,/+5V_PROTECTED*%
X16783500Y-33858500D02*
X13062500Y-33858500D01*
X12000000Y-28362500D02*
X12000000Y-27112400D01*
X23640200Y-39290300D02*
X21734700Y-39290300D01*
X16958000Y-40342000D02*
X19367000Y-40342000D01*
X12000000Y-6000000D02*
X13500800Y-7500800D01*
X25550000Y-40750000D02*
X25099900Y-40750000D01*
X12000000Y-27112400D02*
X11926900Y-27039300D01*
X19367000Y-40342000D02*
X20025000Y-41000000D01*
X20725000Y-37800000D02*
X16783500Y-33858500D01*
X21734700Y-38809700D02*
X20725000Y-37800000D01*
X16300000Y-41000000D02*
X14637500Y-41000000D01*
X25099900Y-40750000D02*
X23640200Y-39290300D01*
X25550000Y-41250000D02*
X25550000Y-40750000D01*
X21734700Y-39290300D02*
X20025000Y-41000000D01*
X16300000Y-41000000D02*
X16958000Y-40342000D01*
X13500800Y-7500800D02*
X13500800Y-7617300D01*
X21734700Y-39290300D02*
X21734700Y-38809700D01*
%TO.N,/ADC_ALERT_N*%
X49236100Y-5512800D02*
X47447800Y-5512800D01*
X50047400Y-14872500D02*
X53035200Y-14872500D01*
X51500000Y-3500000D02*
X51248900Y-3500000D01*
X53035200Y-14872500D02*
X54180700Y-16018000D01*
X48299400Y-16826500D02*
X48299400Y-16620500D01*
X33594600Y-19296300D02*
X33594600Y-19417600D01*
X47447800Y-5512800D02*
X47447800Y-5512900D01*
X51248900Y-3500000D02*
X49236100Y-5512800D01*
X48972900Y-17500000D02*
X48299400Y-16826500D01*
X33400000Y-19101700D02*
X33594600Y-19296300D01*
X54627700Y-23049400D02*
X55125600Y-23049400D01*
X55125600Y-23049400D02*
X56175000Y-22000000D01*
X48299400Y-16620500D02*
X50047400Y-14872500D01*
X33400000Y-18400000D02*
X33400000Y-19101700D01*
X50300000Y-17500000D02*
X48972900Y-17500000D01*
%TO.N,/BOOT_GPIO9*%
X31000000Y-18400000D02*
X31000000Y-24441000D01*
X48000000Y-3500000D02*
X48000000Y-4026500D01*
X55000000Y-39880000D02*
X49505000Y-39880000D01*
X31000000Y-24441000D02*
X31424000Y-24865000D01*
X49505000Y-39880000D02*
X45825000Y-36200000D01*
X48000000Y-4026500D02*
X48730700Y-4757200D01*
%TO.N,/CC1*%
X1320000Y-26250000D02*
X3024100Y-26250000D01*
X3024100Y-26250000D02*
X3166500Y-26392400D01*
X7497300Y-36177700D02*
X4921300Y-36177700D01*
X4770800Y-26392400D02*
X4897300Y-26265900D01*
X3166500Y-26392400D02*
X4770800Y-26392400D01*
X7675000Y-36000000D02*
X7497300Y-36177700D01*
%TO.N,/CC2*%
X6816500Y-33858500D02*
X7675000Y-33000000D01*
X1947100Y-23250000D02*
X2503200Y-23806100D01*
X2503200Y-23906100D02*
X2503300Y-23906100D01*
X1320000Y-23250000D02*
X1947100Y-23250000D01*
X2503200Y-23806100D02*
X2503200Y-23906100D01*
X4287500Y-33858500D02*
X6816500Y-33858500D01*
%TO.N,/EN*%
X52768400Y-34774500D02*
X52542800Y-35000100D01*
X26825000Y-35624200D02*
X25225000Y-34024200D01*
X26825000Y-35624200D02*
X26825000Y-36200000D01*
X41861500Y-21507500D02*
X41696400Y-21507500D01*
X41696400Y-21507500D02*
X41503900Y-21700000D01*
X41503900Y-21700000D02*
X40900000Y-21700000D01*
X52500000Y-12500000D02*
X52500000Y-12630200D01*
X45853800Y-18408100D02*
X44960900Y-18408100D01*
X44960900Y-18408100D02*
X41861500Y-21507500D01*
X48438800Y-15823100D02*
X45853800Y-18408100D01*
X51489000Y-13641200D02*
X51258700Y-13871500D01*
X51258700Y-13871500D02*
X50422100Y-13871500D01*
X52500000Y-12630200D02*
X51489000Y-13641200D01*
X52542800Y-35000100D02*
X43674100Y-35000100D01*
X48470500Y-15823100D02*
X48438800Y-15823100D01*
X43050000Y-35624200D02*
X26825000Y-35624200D01*
X25225000Y-34024200D02*
X25225000Y-33500000D01*
X51881300Y-14033600D02*
X51489000Y-13641200D01*
X50422100Y-13871500D02*
X48470500Y-15823100D01*
X43674100Y-35000100D02*
X43050000Y-35624200D01*
%TO.N,/GND*%
X37400000Y-28200000D02*
X38200000Y-28200000D01*
X50300000Y-18000000D02*
X50343100Y-17956900D01*
X33400000Y-28200000D02*
X34200000Y-28200000D01*
X38200000Y-18400000D02*
X38200000Y-19101700D01*
X39950000Y-26638000D02*
X40060300Y-26638000D01*
X9370800Y-36045800D02*
X9325000Y-36000000D01*
X38001700Y-23300000D02*
X38001700Y-22986900D01*
X45784000Y-33491000D02*
X45775000Y-33500000D01*
X35000000Y-23300000D02*
X33025000Y-23300000D01*
X47778000Y-20003000D02*
X48252500Y-20003000D01*
X35000000Y-28200000D02*
X35800000Y-28200000D01*
X29050000Y-28250000D02*
X29701700Y-28250000D01*
X40950000Y-18350000D02*
X41601700Y-18350000D01*
X1895000Y-20680000D02*
X1320000Y-21255000D01*
X10772500Y-33858500D02*
X10183500Y-33858500D01*
X31800000Y-28200000D02*
X32600000Y-28200000D01*
X38001700Y-25275000D02*
X38207500Y-25069200D01*
X39800000Y-28200000D02*
X40198300Y-28200000D01*
X41601700Y-18350000D02*
X41803800Y-18147900D01*
X48775000Y-10478100D02*
X48775000Y-9500000D01*
X26500000Y-40500000D02*
X26250000Y-40250000D01*
X42197900Y-40722900D02*
X42475000Y-41000000D01*
X39450000Y-19300000D02*
X38398300Y-19300000D01*
X26500000Y-41500000D02*
X26750000Y-41750000D01*
X32600000Y-28200000D02*
X33400000Y-28200000D01*
X23546400Y-20271400D02*
X22775000Y-19500000D01*
X36975000Y-21325000D02*
X35000000Y-21325000D01*
X36975000Y-23300000D02*
X38001700Y-23300000D01*
X21889200Y-40505200D02*
X22480200Y-40505200D01*
X30200000Y-28200000D02*
X31000000Y-28200000D01*
X40248300Y-28200000D02*
X40298300Y-28250000D01*
X46750300Y-33491000D02*
X45784000Y-33491000D01*
X57079000Y-27095000D02*
X57079000Y-28418000D01*
X55775000Y-10481400D02*
X55775000Y-9500000D01*
X10743800Y-10000000D02*
X12000000Y-10000000D01*
X36975000Y-21325000D02*
X38001700Y-21325000D01*
X22480200Y-40505200D02*
X22975000Y-41000000D01*
X38001700Y-21325000D02*
X38205800Y-21529100D01*
X47275000Y-19500000D02*
X47778000Y-20003000D01*
X38398300Y-19300000D02*
X38200000Y-19101700D01*
X27100000Y-41750000D02*
X25550000Y-41750000D01*
X29050000Y-18350000D02*
X28398300Y-18350000D01*
X57079000Y-28418000D02*
X54900000Y-29600000D01*
X40775000Y-37800000D02*
X40775000Y-37744300D01*
X26500000Y-40500000D02*
X26500000Y-41000000D01*
X35800000Y-28200000D02*
X36600000Y-28200000D01*
X58015000Y-22000000D02*
X58785000Y-22000000D01*
X30200000Y-28200000D02*
X29751700Y-28200000D01*
X26775000Y-34481400D02*
X26775000Y-33500000D01*
X38200000Y-28200000D02*
X39000000Y-28200000D01*
X1320000Y-28745000D02*
X1320000Y-28200000D01*
X26250000Y-40250000D02*
X25550000Y-40250000D01*
X1320000Y-21255000D02*
X1320000Y-21800000D01*
X40900000Y-27300000D02*
X41601700Y-27300000D01*
X40198300Y-27300000D02*
X40198300Y-28200000D01*
X17731400Y-40968600D02*
X17700000Y-41000000D01*
X39000000Y-28200000D02*
X39800000Y-28200000D01*
X28194100Y-18554200D02*
X28398300Y-18350000D01*
X10183500Y-33858500D02*
X9325000Y-33000000D01*
X53250000Y-9321400D02*
X52453600Y-9321400D01*
X34200000Y-28200000D02*
X35000000Y-28200000D01*
X1895000Y-29320000D02*
X1320000Y-28745000D01*
X52453600Y-9321400D02*
X52275000Y-9500000D01*
X40950000Y-28250000D02*
X40298300Y-28250000D01*
X38001700Y-22986900D02*
X38203100Y-22785500D01*
X40900000Y-19300000D02*
X39450000Y-19300000D01*
X36975000Y-25275000D02*
X38001700Y-25275000D01*
X41379100Y-40722900D02*
X42197900Y-40722900D01*
X41601700Y-27300000D02*
X41812900Y-27511200D01*
X40775000Y-37744300D02*
X40047300Y-37016600D01*
X36374300Y-40722900D02*
X37197900Y-40722900D01*
X40900000Y-27300000D02*
X40198300Y-27300000D01*
X35000000Y-25275000D02*
X33025000Y-25275000D01*
X18507500Y-40968600D02*
X17731400Y-40968600D01*
X23236800Y-37800000D02*
X22275000Y-37800000D01*
X36600000Y-28200000D02*
X37400000Y-28200000D01*
X59599000Y-22000000D02*
X58785000Y-22000000D01*
X39450000Y-19300000D02*
X39450000Y-19561100D01*
X10769100Y-36045800D02*
X9370800Y-36045800D01*
X40900000Y-26500000D02*
X40198300Y-26500000D01*
X26750000Y-41750000D02*
X27100000Y-41750000D01*
X50343100Y-17956900D02*
X51573200Y-17956900D01*
X51596500Y-17000000D02*
X50300000Y-17000000D01*
X36975000Y-25275000D02*
X35000000Y-25275000D01*
X59567700Y-10272700D02*
X58795000Y-9500000D01*
X35000000Y-21325000D02*
X33025000Y-21325000D01*
X12000000Y-30637500D02*
X12000000Y-31815600D01*
X40060300Y-26638000D02*
X40198300Y-26500000D01*
X37197900Y-40722900D02*
X37475000Y-41000000D01*
X29751700Y-28200000D02*
X29701700Y-28250000D01*
X31000000Y-28200000D02*
X31800000Y-28200000D01*
X27100000Y-41750000D02*
X27450000Y-41750000D01*
X36975000Y-23300000D02*
X35000000Y-23300000D01*
X40198300Y-28200000D02*
X40248300Y-28200000D01*
%TO.N,/I2C_SCL*%
X53524300Y-17000000D02*
X53468600Y-17055700D01*
X31813100Y-20349900D02*
X32012300Y-20150700D01*
X54539000Y-27095000D02*
X54539000Y-28196700D01*
X53145000Y-22000000D02*
X53145000Y-22928000D01*
X34200000Y-19663100D02*
X34200000Y-19101700D01*
X53145000Y-22928000D02*
X52317800Y-23755200D01*
X54539000Y-28196700D02*
X51331700Y-28196700D01*
X25094900Y-20498700D02*
X16000000Y-11403800D01*
X51331700Y-28196700D02*
X51087500Y-27952500D01*
X54539000Y-27095000D02*
X54539000Y-25993300D01*
X16000000Y-11403800D02*
X16000000Y-10000000D01*
X33712400Y-20150700D02*
X34200000Y-19663100D01*
X54700000Y-17000000D02*
X53524300Y-17000000D01*
X34200000Y-18400000D02*
X34200000Y-19101700D01*
X46092200Y-25993300D02*
X43302800Y-23203900D01*
X54539000Y-25993300D02*
X46092200Y-25993300D01*
X32012300Y-20150700D02*
X33712400Y-20150700D01*
%TO.N,/I2C_SDA*%
X56002400Y-17500000D02*
X56131400Y-17371000D01*
X37342500Y-19101700D02*
X39965400Y-21724600D01*
X58349000Y-27095000D02*
X58349000Y-25993300D01*
X35000000Y-19101700D02*
X37342500Y-19101700D01*
X52265500Y-24942700D02*
X52965500Y-24942700D01*
X56490700Y-24942700D02*
X52265500Y-24942700D01*
X43059000Y-22109200D02*
X41945500Y-22109200D01*
X57363400Y-25007700D02*
X56555700Y-25007700D01*
X17281500Y-7281500D02*
X16000000Y-6000000D01*
X50125000Y-22802200D02*
X43752000Y-22802200D01*
X43752000Y-22802200D02*
X43059000Y-22109200D01*
X35000000Y-18400000D02*
X35000000Y-19101700D01*
X52265500Y-24942700D02*
X50125000Y-22802200D01*
X56555700Y-25007700D02*
X56490700Y-24942700D01*
X54700000Y-17500000D02*
X56002400Y-17500000D01*
X58349000Y-25993300D02*
X57363400Y-25007700D01*
X18088200Y-7281500D02*
X17281500Y-7281500D01*
X50125000Y-22802200D02*
X50125000Y-22000000D01*
%TO.N,/MOISTURE_AIN0*%
X50300000Y-18500000D02*
X51066600Y-18500000D01*
X47225000Y-8100000D02*
X48825000Y-6500000D01*
X47225000Y-9500000D02*
X47225000Y-9869100D01*
X47225000Y-9869100D02*
X48454800Y-11098900D01*
X51066600Y-18500000D02*
X51125300Y-18558700D01*
X51125300Y-18558700D02*
X51847300Y-18558700D01*
X56000000Y-3500000D02*
X54817400Y-4682600D01*
X51847300Y-18558700D02*
X52221200Y-18184800D01*
X50642400Y-4682600D02*
X48825000Y-6500000D01*
X52221200Y-18184800D02*
X52221200Y-16714600D01*
X48454800Y-11098900D02*
X49906000Y-11098900D01*
X50994100Y-15487500D02*
X50290300Y-15487500D01*
X47225000Y-9500000D02*
X47225000Y-8100000D01*
X54817400Y-4682600D02*
X50642400Y-4682600D01*
X49906000Y-11098900D02*
X49906000Y-11099000D01*
X52221200Y-16714600D02*
X50994100Y-15487500D01*
%TO.N,/MOISTURE_AIN1*%
X50300000Y-19000000D02*
X49982100Y-19317900D01*
X51109400Y-11981300D02*
X50725100Y-11597000D01*
X53945800Y-5096100D02*
X57003900Y-5096100D01*
X50725000Y-9500000D02*
X50725000Y-8100000D01*
X50962500Y-13187500D02*
X51109400Y-13040600D01*
X50725100Y-11597000D02*
X50725000Y-11597000D01*
X52541900Y-6500000D02*
X53945800Y-5096100D01*
X51109400Y-13040600D02*
X51109400Y-11981300D01*
X50725000Y-11597000D02*
X50725000Y-9500000D01*
X50725000Y-8100000D02*
X52325000Y-6500000D01*
X57003900Y-5096100D02*
X58600000Y-3500000D01*
X49982100Y-19317900D02*
X49982100Y-19674400D01*
X52325000Y-6500000D02*
X52541900Y-6500000D01*
%TO.N,/MOISTURE_AIN2*%
X10743800Y-14983000D02*
X8483000Y-14983000D01*
X54225000Y-9500000D02*
X54225000Y-10475000D01*
X54225000Y-10475000D02*
X56937500Y-13187500D01*
X16281000Y-48075000D02*
X15987500Y-48368500D01*
X54225000Y-8100000D02*
X55825000Y-6500000D01*
X53300000Y-48075000D02*
X16281000Y-48075000D01*
X56808200Y-19000000D02*
X56937500Y-19129300D01*
X54700000Y-19000000D02*
X56808200Y-19000000D01*
X8483000Y-14983000D02*
X8000000Y-14500000D01*
X54225000Y-9500000D02*
X54225000Y-8100000D01*
%TO.N,/MOISTURE_AIN3*%
X62670700Y-18500000D02*
X62787500Y-18616800D01*
X21514000Y-24014000D02*
X27665300Y-24014000D01*
X53067200Y-18500000D02*
X50962500Y-20604700D01*
X54700000Y-18500000D02*
X62670700Y-18500000D01*
X59341100Y-7403900D02*
X59984900Y-7403900D01*
X57245000Y-9500000D02*
X59341100Y-7403900D01*
X12000000Y-14500000D02*
X21514000Y-24014000D01*
X59984900Y-7403900D02*
X62787500Y-10206500D01*
X59341100Y-7403900D02*
X59341100Y-6996100D01*
X50962500Y-20604700D02*
X48283200Y-20604700D01*
X48283200Y-20604700D02*
X47707400Y-21180500D01*
X54700000Y-18500000D02*
X53067200Y-18500000D01*
X59341100Y-6996100D02*
X58845000Y-6500000D01*
%TO.N,/PROBE1_RAW*%
X46788100Y-6113100D02*
X47175000Y-6500000D01*
X46788100Y-4868400D02*
X46788100Y-6113100D01*
X47111800Y-4544700D02*
X46788100Y-4868400D01*
X58015000Y-21000000D02*
X57121100Y-21000000D01*
X57121100Y-21000000D02*
X57059100Y-21062000D01*
%TO.N,/PROBE2_RAW*%
X52906700Y-5284300D02*
X51890700Y-5284300D01*
X51890700Y-5284300D02*
X50675000Y-6500000D01*
X57016200Y-23442900D02*
X57016200Y-22091800D01*
X57016200Y-22091800D02*
X57608000Y-21500000D01*
X57608000Y-21500000D02*
X58015000Y-21500000D01*
X66900000Y-32150000D02*
X65723300Y-32150000D01*
X65723300Y-32150000D02*
X57016200Y-23442900D01*
%TO.N,/PROBE3_RAW*%
X58072400Y-23876700D02*
X64796600Y-23876700D01*
X54978500Y-5696500D02*
X59957300Y-5696500D01*
X64796600Y-23876700D02*
X65723300Y-22950000D01*
X58015000Y-22500000D02*
X57659700Y-22500000D01*
X57437200Y-23241500D02*
X58072400Y-23876700D01*
X59957300Y-5696500D02*
X63630900Y-9370100D01*
X66900000Y-22950000D02*
X65723300Y-22950000D01*
X54175000Y-6500000D02*
X54978500Y-5696500D01*
X57659700Y-22500000D02*
X57437200Y-22722500D01*
X57437200Y-22722500D02*
X57437200Y-23241500D01*
%TO.N,/PROBE4_RAW*%
X66900000Y-13750000D02*
X66900000Y-14651700D01*
X66900000Y-12848300D02*
X65998300Y-12848300D01*
X65998300Y-12848300D02*
X65201400Y-12051400D01*
X66900000Y-13750000D02*
X66900000Y-12848300D01*
X59743400Y-23475000D02*
X58451900Y-23475000D01*
X65201400Y-12051400D02*
X56440200Y-12051400D01*
X68083300Y-19523900D02*
X67589000Y-20018200D01*
X58089800Y-23074800D02*
X58015000Y-23000000D01*
X58089900Y-23074800D02*
X58089800Y-23074800D01*
X55000000Y-10611200D02*
X55000000Y-8695000D01*
X56440200Y-12051400D02*
X55000000Y-10611200D01*
X58089900Y-23113000D02*
X58089900Y-23074800D01*
X68083300Y-15835000D02*
X68083300Y-19523900D01*
X58451900Y-23475000D02*
X58089900Y-23113000D01*
X67589000Y-20018200D02*
X63200200Y-20018200D01*
X55000000Y-8695000D02*
X57195000Y-6500000D01*
X63200200Y-20018200D02*
X59743400Y-23475000D01*
X66900000Y-14651700D02*
X68083300Y-15835000D01*
%TO.N,/REG_PG*%
X38062300Y-38175800D02*
X38915700Y-39029200D01*
X47884500Y-25544400D02*
X47697600Y-25357500D01*
X30825000Y-38175800D02*
X38062300Y-38175800D01*
X49269500Y-12230500D02*
X49000000Y-12500000D01*
X50507700Y-12230500D02*
X49269500Y-12230500D01*
X29524200Y-38175800D02*
X30825000Y-38175800D01*
X27450000Y-40250000D02*
X29524200Y-38175800D01*
X55013100Y-25544400D02*
X47884500Y-25544400D01*
X30825000Y-38175800D02*
X30825000Y-37000000D01*
%TO.N,/SW_NODE*%
X30075000Y-40750000D02*
X30225000Y-40900000D01*
X27450000Y-40750000D02*
X30075000Y-40750000D01*
%TO.N,/U0RXD*%
X49496900Y-31308000D02*
X43529400Y-31308000D01*
X32646200Y-26938000D02*
X38754700Y-26938000D01*
X29801700Y-23300000D02*
X29801700Y-24093500D01*
X29801700Y-24093500D02*
X32646200Y-26938000D01*
X29100000Y-23300000D02*
X29801700Y-23300000D01*
X43529400Y-31308000D02*
X42735900Y-30514500D01*
%TO.N,/U0TXD*%
X53221100Y-34172800D02*
X52519300Y-34172800D01*
X52143300Y-34548900D02*
X43357100Y-34548900D01*
X28234000Y-34611700D02*
X28083800Y-34461500D01*
X29100000Y-24100000D02*
X28398300Y-24100000D01*
X55000000Y-34800000D02*
X53848300Y-34800000D01*
X28083800Y-34461500D02*
X28083800Y-24446400D01*
X28083800Y-24446400D02*
X28398300Y-24131900D01*
X52143300Y-34548800D02*
X52143300Y-34548900D01*
X43357100Y-34548900D02*
X43294300Y-34611700D01*
X43294300Y-34611700D02*
X28234000Y-34611700D01*
X53848300Y-34800000D02*
X53221100Y-34172800D01*
X28398300Y-24131900D02*
X28398300Y-24100000D01*
X52519300Y-34172800D02*
X52143300Y-34548800D01*
%TO.N,/USB_CONN_DM*%
X11050000Y-30637500D02*
X5806300Y-30637500D01*
X3415600Y-25790700D02*
X3374900Y-25750000D01*
X3374900Y-25750000D02*
X2197000Y-25750000D01*
X2197000Y-25750000D02*
X1320000Y-25750000D01*
X5806300Y-30637500D02*
X3569400Y-28400600D01*
%TO.N,/USB_CONN_DP*%
X1320000Y-24250000D02*
X1996100Y-24250000D01*
X12169400Y-29500000D02*
X10827800Y-29500000D01*
X1996100Y-24250000D02*
X2727200Y-24981100D01*
X12950000Y-30637500D02*
X12950000Y-30280600D01*
X2727200Y-24981100D02*
X2727200Y-25182800D01*
X10827800Y-29500000D02*
X6510600Y-25182800D01*
X2727200Y-25182800D02*
X2660000Y-25250000D01*
X2660000Y-25250000D02*
X1320000Y-25250000D01*
X6510600Y-25182800D02*
X2727200Y-25182800D01*
X12950000Y-30280600D02*
X12169400Y-29500000D01*
%TO.N,/USB_DM*%
X20000000Y-10000000D02*
X21603000Y-10000000D01*
X23254600Y-26437500D02*
X23919200Y-27102100D01*
X29100000Y-20100000D02*
X26445900Y-20100000D01*
X21603000Y-10000000D02*
X21837500Y-10234500D01*
X11651400Y-26437500D02*
X23254600Y-26437500D01*
X11050000Y-28362500D02*
X11050000Y-27038900D01*
X11050000Y-27038900D02*
X11651400Y-26437500D01*
X26445900Y-20100000D02*
X25236300Y-18890400D01*
%TO.N,/USB_DP*%
X18927800Y-13480700D02*
X18927800Y-7072200D01*
X25826600Y-20379500D02*
X18927800Y-13480700D01*
X12950000Y-28362500D02*
X24352500Y-28362500D01*
X25826600Y-21548100D02*
X25826600Y-20900000D01*
X25826600Y-20900000D02*
X25826600Y-20379500D01*
X25826600Y-20900000D02*
X29100000Y-20900000D01*
X18927800Y-7072200D02*
X20000000Y-6000000D01*
X24352500Y-28362500D02*
X24762500Y-27952500D01*
%TO.N,/VBUS*%
X10362500Y-41000000D02*
X8448000Y-41000000D01*
X9731500Y-7281500D02*
X8450000Y-6000000D01*
X10137500Y-7281500D02*
X9731500Y-7281500D01*
X8448000Y-41000000D02*
X7212500Y-39764500D01*
%TD*%
M02*
